<?xml version="1.0" encoding="UTF-8" standalone="no"?>
<svg
   xmlns:dc="http://purl.org/dc/elements/1.1/"
   xmlns:cc="http://creativecommons.org/ns#"
   xmlns:rdf="http://www.w3.org/1999/02/22-rdf-syntax-ns#"
   xmlns:svg="http://www.w3.org/2000/svg"
   xmlns="http://www.w3.org/2000/svg"
   id="svg8"
   version="1.1"
   viewBox="0 0 70 70.000001"
   height="70mm"
   width="70mm">
  <defs
     id="defs2" />
  <metadata
     id="metadata5">
    <rdf:RDF>
      <cc:Work
         rdf:about="">
        <dc:format>image/svg+xml</dc:format>
        <dc:type
           rdf:resource="http://purl.org/dc/dcmitype/StillImage" />
        <dc:title></dc:title>
      </cc:Work>
    </rdf:RDF>
  </metadata>
  <g
     style="display:none"
     transform="translate(-24.116867,19.20359)"
     id="layer2">
    <g
       style="stroke:#000000;stroke-opacity:1"
       transform="translate(0.31150748,0.34288747)"
       id="g853" />
    <rect
       y="-19.20359"
       x="24.116867"
       height="70"
       width="70"
       id="rect883"
       style="fill:#882aff;fill-opacity:1;stroke:none;stroke-width:0.3;stroke-miterlimit:2;stroke-dasharray:none;stroke-opacity:1" />
    <circle
       r="35"
       cy="15.79641"
       cx="59.116867"
       id="path885-8"
       style="fill:#ff0000;fill-rule:evenodd;stroke-width:0.259918" />
  </g>
  <g
     style="opacity:0.405"
     transform="translate(-80.05735,-60.082117)"
     id="layer1">
    <path
       id="path857"
       d="m 117.23266,117.56466 c -0.12191,-0.0138 -0.53513,-0.0543 -0.91829,-0.0901 -2.06923,-0.19319 -4.11658,-0.78743 -6.17242,-1.79153 l -1.10595,-0.54017 -0.47731,0.0591 c -2.38372,0.29482 -4.65503,-0.0884 -6.89399,-1.16302 -1.53316,-0.7359 -2.721624,-1.57432 -4.037975,-2.8486 -3.249844,-3.14604 -5.278904,-7.57901 -5.897079,-12.8836 -0.154351,-1.324485 -0.153168,-4.394664 0.0022,-5.62644 0.341655,-2.709271 1.08095,-5.137574 2.289146,-7.518987 1.170234,-2.30658 2.56578,-4.204486 4.401763,-5.986274 3.318055,-3.220124 7.490335,-5.360422 12.128565,-6.221718 1.57428,-0.292335 2.52003,-0.370964 4.46481,-0.371203 1.89007,-2.31e-4 2.59604,0.05183 4.17004,0.307474 5.84949,0.950073 11.04834,4.007759 14.60342,8.588953 3.32009,4.278366 5.00131,9.842176 4.66922,15.452284 -0.11402,1.926101 -0.29906,3.130561 -0.74736,4.864321 -1.28215,4.95872 -4.2634,9.32059 -8.3944,12.28183 -2.58448,1.85265 -5.46467,3.00628 -8.41565,3.3708 -0.74741,0.0923 -3.19503,0.17032 -3.66871,0.11691 z m 2.81217,-4.20269 c 2.47773,-0.23593 4.95819,-1.26659 7.19405,-2.9892 0.7346,-0.56598 2.10062,-1.88613 2.6832,-2.59315 2.21808,-2.69174 3.61105,-5.88965 4.12931,-9.47984 0.1376,-0.953179 0.18989,-3.433831 0.094,-4.458571 -0.55999,-5.983002 -3.52105,-10.919913 -8.45856,-14.102716 -4.40588,-2.840109 -10.14622,-3.76022 -15.42051,-2.471729 -6.17266,1.50796 -11.185348,5.942719 -13.294151,11.761433 -0.871913,2.405822 -1.244813,5.026033 -1.083175,7.611058 0.188946,3.021775 0.815036,5.462955 1.999234,7.795185 1.063746,2.095 2.555612,3.86565 4.238062,5.03002 0.49841,0.34491 1.46636,0.89311 1.577,0.89311 0.0943,0 0.0166,-0.15326 -0.36445,-0.71909 -1.61003,-2.39082 -2.77002,-5.61097 -3.23442,-8.97887 -0.252852,-1.83375 -0.307823,-4.450042 -0.128303,-6.10687 0.568493,-5.246659 2.947873,-9.38965 6.822053,-11.878622 2.95127,-1.896042 6.4621,-2.678756 10.14953,-2.262772 5.27091,0.594622 9.47801,3.889006 11.6704,9.138577 0.53435,1.279458 0.91211,2.664993 1.12962,4.143119 0.22209,1.509435 0.12652,3.784419 -0.22979,5.469228 -0.91187,4.31173 -3.48828,7.91512 -6.78541,9.49016 -1.50644,0.71965 -3.4572,1.13184 -5.11765,1.08136 l -0.66277,-0.0202 -0.39462,0.54923 c -0.55742,0.77578 -1.24308,1.57183 -1.77884,2.06527 -0.25256,0.23258 -0.45918,0.44951 -0.45918,0.48206 0,0.12688 1.40971,0.42987 2.5649,0.55127 1.09731,0.11534 1.95322,0.11547 3.16048,5.8e-4 z m -9.39675,-3.1732 c 0.58614,-0.34811 1.68461,-1.31759 2.01668,-1.77987 l 0.14319,-0.19934 -0.30503,-0.25849 c -0.55895,-0.47367 -1.17303,-1.10849 -1.55413,-1.60663 -0.81193,-1.06133 -1.52833,-2.45913 -1.84788,-3.6056 -0.51123,-1.83407 -0.77174,-4.71973 -0.61161,-6.774765 0.2851,-3.658466 1.37881,-6.043688 3.36027,-7.328229 2.03703,-1.320577 5.02745,-1.184984 6.72999,0.305154 0.53526,0.468479 0.91793,0.984194 1.27839,1.722866 0.65039,1.332825 0.91816,2.821888 0.92002,5.116078 0.004,3.527216 -0.45232,6.453456 -1.38504,8.904346 -0.14578,0.38308 -0.23122,0.69296 -0.19951,0.72365 0.091,0.0883 1.19545,-0.25279 1.75949,-0.54333 0.68027,-0.35039 1.14906,-0.70483 1.74688,-1.32072 1.77923,-1.83308 2.89421,-4.84321 2.89199,-7.807569 -0.002,-1.919808 -0.48884,-3.857938 -1.42455,-5.664673 -0.62352,-1.203926 -1.15158,-1.915883 -2.12019,-2.858594 -1.84208,-1.792826 -3.9134,-2.645587 -6.65095,-2.738196 -2.40122,-0.08123 -4.57601,0.530626 -6.47496,1.821661 -0.75022,0.510047 -1.85939,1.58525 -2.40641,2.332711 -0.861,1.176459 -1.60083,2.859666 -1.96944,4.480702 -0.77368,3.402333 -0.42442,7.838368 0.88916,11.293638 0.573,1.50723 1.68293,3.3749 2.68649,4.52055 0.64487,0.73619 1.62185,1.61759 1.79297,1.61759 0.077,0 0.40734,-0.15883 0.73418,-0.35294 z m 4.50539,-5.82932 c 0.88351,-0.80116 1.57153,-4.29464 1.5723,-7.983481 6e-4,-2.733921 -0.39977,-4.187907 -1.2718,-4.619077 -0.28616,-0.141493 -0.73359,-0.155835 -1.03639,-0.03322 -0.74934,0.303445 -1.3529,1.572028 -1.65249,3.473161 -0.13946,0.885105 -0.19489,3.441347 -0.0967,4.459467 0.22809,2.36482 0.97478,4.28929 1.86863,4.81612 0.22444,0.13228 0.37675,0.10437 0.61644,-0.11297 z"
       style="fill:#f1f1f1;fill-opacity:0.30000001;stroke:none;stroke-width:0.06234739;stroke-opacity:1" />
  </g>
  <g
     transform="translate(3.6777819,4.0666404)"
     style="display:none"
     id="layer3">
    <circle
       r="35"
       cy="30.933359"
       cx="31.322218"
       id="path885"
       style="fill:#ff0000;fill-rule:evenodd;stroke-width:0.25991827" />
  </g>
</svg>
